<?xml version="1.0" encoding="UTF-8" standalone="no"?>
<svg
   xmlns:dc="http://purl.org/dc/elements/1.1/"
   xmlns:cc="http://creativecommons.org/ns#"
   xmlns:rdf="http://www.w3.org/1999/02/22-rdf-syntax-ns#"
   xmlns:svg="http://www.w3.org/2000/svg"
   xmlns="http://www.w3.org/2000/svg"
   xmlns:xlink="http://www.w3.org/1999/xlink"
   xmlns:sodipodi="http://sodipodi.sourceforge.net/DTD/sodipodi-0.dtd"
   xmlns:inkscape="http://www.inkscape.org/namespaces/inkscape"
   version="1.1"
   id="Layer_1"
   x="0px"
   y="0px"
   viewBox="0 0 681.07129 645.78827"
   xml:space="preserve"
   sodipodi:docname="signal-wifi.svg"
   width="681.07129"
   height="645.78827"
   inkscape:version="1.0.2 (1.0.2+r75+1)"><metadata
   id="metadata1024"><rdf:RDF><cc:Work
       rdf:about=""><dc:format>image/svg+xml</dc:format><dc:type
         rdf:resource="http://purl.org/dc/dcmitype/StillImage" /><dc:title></dc:title></cc:Work></rdf:RDF></metadata><defs
   id="defs1022"><linearGradient
     inkscape:collect="always"
     id="linearGradient2113-7"><stop
       style="stop-color:#9f0000;stop-opacity:1"
       offset="0"
       id="stop2109" /><stop
       style="stop-color:#ff7370;stop-opacity:1"
       offset="1"
       id="stop2111" /></linearGradient><linearGradient
     inkscape:collect="always"
     xlink:href="#linearGradient2113-7"
     id="linearGradient2117"
     gradientUnits="userSpaceOnUse"
     x1="119.92741"
     y1="159.81143"
     x2="-45.338383"
     y2="159.81143"
     gradientTransform="translate(-49.622163,-70.221647)" /></defs><sodipodi:namedview
   pagecolor="#ffffff"
   bordercolor="#666666"
   borderopacity="1"
   objecttolerance="10"
   gridtolerance="10"
   guidetolerance="10"
   inkscape:pageopacity="0"
   inkscape:pageshadow="2"
   inkscape:window-width="1918"
   inkscape:window-height="997"
   id="namedview1020"
   showgrid="false"
   showguides="true"
   inkscape:guide-bbox="true"
   inkscape:zoom="1.2094054"
   inkscape:cx="334.16757"
   inkscape:cy="299.04782"
   inkscape:window-x="0"
   inkscape:window-y="82"
   inkscape:window-maximized="0"
   inkscape:current-layer="g987"
   fit-margin-top="0"
   fit-margin-left="0"
   fit-margin-right="0"
   fit-margin-bottom="0" />
<g
   id="g987"
   transform="translate(287.16818,108.12902)"
   style="fill:#f03633;fill-opacity:1">
	
	<path
   style="fill:#f45a57;fill-opacity:1"
   d="m 83.372935,395.78444 c -13.63232,-13.63232 -13.63232,-35.73647 0,-49.36879 72.592285,-72.59228 72.592985,-190.70811 0,-263.3011 -13.63232,-13.63232 -13.63232,-35.73647 0,-49.36879 13.63231,-13.63231 35.736465,-13.63231 49.368775,0 48.35267,48.35267 74.98019,112.63929 74.98019,181.01934 0.001,68.38005 -26.62823,132.66737 -74.98019,181.01934 -13.63231,13.63231 -35.736465,13.63231 -49.368775,0 z"
   id="path983" />
	<path
   style="fill:#f45a57;fill-opacity:1"
   d="m 215.02348,527.43499 c -13.63231,-13.63231 -13.63231,-35.73647 0,-49.36878 145.18458,-145.18458 145.18458,-381.41764 0,-526.60222 -13.63231,-13.63231 -13.63231,-35.73647 0,-49.36878 13.63231,-13.63231 35.73647,-13.63231 49.36878,0 42.19872,42.19872 74.87907,91.4197099 97.13031,146.29403 21.48615,52.98492 32.38125,108.96232 32.38054,166.37586 7.1e-4,57.41495 -10.89369,113.39023 -32.38054,166.37586 -22.25194,54.87361 -54.93018,104.0939 -97.13031,146.29403 -13.63231,13.63231 -35.73647,13.63231 -49.36878,0 z"
   id="path985" />
</g>
<g
   id="g989"
   transform="translate(46.66305,66.034128)">
</g>
<g
   id="g991"
   transform="translate(46.66305,66.034128)">
</g>
<g
   id="g993"
   transform="translate(46.66305,66.034128)">
</g>
<g
   id="g995"
   transform="translate(46.66305,66.034128)">
</g>
<g
   id="g997"
   transform="translate(46.66305,66.034128)">
</g>
<g
   id="g999"
   transform="translate(46.66305,66.034128)">
</g>
<g
   id="g1001"
   transform="translate(46.66305,66.034128)">
</g>
<g
   id="g1003"
   transform="translate(46.66305,66.034128)">
</g>
<g
   id="g1005"
   transform="translate(46.66305,66.034128)">
</g>
<g
   id="g1007"
   transform="translate(46.66305,66.034128)">
</g>
<g
   id="g1009"
   transform="translate(46.66305,66.034128)">
</g>
<g
   id="g1011"
   transform="translate(46.66305,66.034128)">
</g>
<g
   id="g1013"
   transform="translate(46.66305,66.034128)">
</g>
<g
   id="g1015"
   transform="translate(46.66305,66.034128)">
</g>
<g
   id="g1017"
   transform="translate(46.66305,66.034128)">
</g>
<g
   id="g1756"
   transform="matrix(0.94036712,0,0,0.94036712,40.105059,172.03265)"
   style="fill:#f03633;fill-opacity:1;stroke-width:1.06341"><path
     d="m 295.84,146.049 -256,-144 C 34.88,-0.735 28.832,-0.671 23.936,2.177 19.008,5.057 16,10.305 16,16.001 v 288 c 0,5.696 3.008,10.944 7.936,13.824 2.496,1.44 5.28,2.176 8.064,2.176 2.688,0 5.408,-0.672 7.84,-2.048 l 256,-144 c 5.024,-2.848 8.16,-8.16 8.16,-13.952 0,-5.792 -3.136,-11.104 -8.16,-13.952 z"
     id="path1701"
     style="fill:#f03633;fill-opacity:1;stroke-width:1.06341" /><g
     id="g1703"
     style="fill:#f03633;fill-opacity:1;stroke-width:1.06341">
</g><g
     id="g1705"
     style="fill:#f03633;fill-opacity:1;stroke-width:1.06341">
</g><g
     id="g1707"
     style="fill:#f03633;fill-opacity:1;stroke-width:1.06341">
</g><g
     id="g1709"
     style="fill:#f03633;fill-opacity:1;stroke-width:1.06341">
</g><g
     id="g1711"
     style="fill:#f03633;fill-opacity:1;stroke-width:1.06341">
</g><g
     id="g1713"
     style="fill:#f03633;fill-opacity:1;stroke-width:1.06341">
</g><g
     id="g1715"
     style="fill:#f03633;fill-opacity:1;stroke-width:1.06341">
</g><g
     id="g1717"
     style="fill:#f03633;fill-opacity:1;stroke-width:1.06341">
</g><g
     id="g1719"
     style="fill:#f03633;fill-opacity:1;stroke-width:1.06341">
</g><g
     id="g1721"
     style="fill:#f03633;fill-opacity:1;stroke-width:1.06341">
</g><g
     id="g1723"
     style="fill:#f03633;fill-opacity:1;stroke-width:1.06341">
</g><g
     id="g1725"
     style="fill:#f03633;fill-opacity:1;stroke-width:1.06341">
</g><g
     id="g1727"
     style="fill:#f03633;fill-opacity:1;stroke-width:1.06341">
</g><g
     id="g1729"
     style="fill:#f03633;fill-opacity:1;stroke-width:1.06341">
</g><g
     id="g1731"
     style="fill:#f03633;fill-opacity:1;stroke-width:1.06341">
</g><path
     d="M 118.68028,150.49923 -28.904468,52.431545 c -2.859454,-1.895975 -6.346144,-1.852389 -9.168702,0.08717 -2.84101,1.961354 -4.57513,5.535376 -4.57513,9.414498 V 258.06859 c 0,3.87912 1.73412,7.45314 4.57513,9.4145 1.438951,0.98068 3.043935,1.48191 4.648919,1.48191 1.54964,0 3.117728,-0.45765 4.519783,-1.39474 L 118.68028,169.50257 c 2.89635,-1.93956 4.70426,-5.55717 4.70426,-9.50167 0,-3.9445 -1.80791,-7.56211 -4.70426,-9.50167 z"
     id="path1844"
     style="opacity:1;fill:url(#linearGradient2117);fill-opacity:1;stroke-width:1.06341" /></g></svg>
